<?xml version="1.0" encoding="UTF-8" standalone="no"?>
<!DOCTYPE svg PUBLIC "-//W3C//DTD SVG 1.1//EN" "http://www.w3.org/Graphics/SVG/1.1/DTD/svg11.dtd">
<svg width="100%" height="100%" viewBox="0 0 1178 726" version="1.1" xmlns="http://www.w3.org/2000/svg" xmlns:xlink="http://www.w3.org/1999/xlink" xml:space="preserve" xmlns:serif="http://www.serif.com/" style="fill-rule:evenodd;clip-rule:evenodd;stroke-miterlimit:10;">
    <g transform="matrix(1,0,0,1,-11.09,-87.42)">
        <path d="M1188.91,552.73C1188.93,572.359 1186.56,591.916 1181.84,610.97C1180.25,617.383 1178.41,623.67 1176.31,629.83C1173.74,637.424 1170.76,644.875 1167.39,652.15C1165.69,655.823 1163.89,659.43 1162,662.97C1162.03,683.098 1157.89,703.015 1149.83,721.46C1135.26,754.542 1109.28,781.312 1076.65,796.86C1056.21,806.607 1033.88,811.729 1011.24,811.86L234.68,811.86C200.129,811.937 166.167,802.862 136.26,785.56C131.84,783 127.533,780.273 123.34,777.38C114.235,771.09 105.681,764.038 97.77,756.3C87.06,745.824 77.625,734.119 69.66,721.43C50.95,691.721 41.035,657.31 41.07,622.2C22.12,588.95 11.07,549.12 11.07,506.32C11.07,452.32 28.63,403.06 57.48,365.77C63.495,357.979 70.083,350.649 77.19,343.84C84.202,337.102 91.739,330.933 99.73,325.39C106.121,320.947 112.802,316.938 119.73,313.39C122.62,311.91 125.52,310.53 128.47,309.24C131.06,308.09 133.68,307.02 136.33,306.01C139.51,304.797 142.73,303.687 145.99,302.68C149.25,301.673 152.467,300.787 155.64,300.02C160.307,298.88 165.053,297.953 169.88,297.24C173.88,296.65 177.88,296.24 181.88,295.92C185.06,295.693 188.267,295.56 191.5,295.52L193.25,295.52C196.81,295.52 200.35,295.66 203.86,295.9C204.23,295.16 204.63,294.41 205,293.67C206.4,291.01 207.85,288.35 209.31,285.74L209.31,285.67C209.56,285.22 209.81,284.77 210.07,284.33C211.25,282.2 212.48,280.09 213.74,278C214.32,277 214.89,276.06 215.48,275.11C215.61,274.88 215.74,274.66 215.89,274.43C216.49,273.43 217.1,272.43 217.72,271.43C220.807,266.503 224.017,261.653 227.35,256.88C227.64,256.47 227.91,256.07 228.2,255.67C228.72,254.93 229.2,254.2 229.78,253.47C231.16,251.54 232.58,249.6 234.01,247.69C235.01,246.34 236.01,244.99 237.09,243.69C239.69,240.33 242.36,236.99 245.09,233.69C247.82,230.39 250.7,227.07 253.61,223.82C254.01,223.37 254.41,222.93 254.83,222.48L259.1,217.83C259.31,217.61 259.49,217.41 259.69,217.21C260.2,216.66 260.69,216.11 261.24,215.57C263.53,213.15 265.88,210.76 268.24,208.4C280.295,196.422 293.137,185.264 306.68,175C307.21,174.58 307.75,174.18 308.28,173.78C310.82,171.86 313.4,169.97 315.98,168.11C330.173,157.933 345.007,148.681 360.39,140.41C361.45,139.81 362.53,139.24 363.62,138.67C377.415,131.377 391.599,124.847 406.11,119.11C414.017,115.983 422.063,113.063 430.25,110.35C435.67,108.58 441.11,106.89 446.62,105.35C455.14,102.903 463.767,100.697 472.5,98.73C498.229,92.957 524.404,89.391 550.74,88.07C558.74,87.65 566.83,87.44 575.01,87.44C614.48,87.388 653.796,92.361 692.01,102.24C692.812,103.453 694.187,104.168 695.64,104.13L699,104.13C700.46,104.52 701.91,104.93 703.37,105.35C711.523,107.703 719.56,110.267 727.48,113.04L729.48,113.76C749.028,120.711 768.047,129.066 786.39,138.76C802.923,147.481 818.843,157.317 834.04,168.2C836.38,169.88 838.687,171.577 840.96,173.29C843.72,171.51 846.527,169.813 849.38,168.2C860.399,161.928 872.103,156.942 884.26,153.34C909.676,145.819 936.574,144.767 962.5,150.28C995.75,157.33 1025.85,174.83 1050.16,199.72C1060.06,209.871 1068.88,221.024 1076.48,233C1077.03,233.86 1077.58,234.73 1078.11,235.61C1084.63,246.245 1090.23,257.416 1094.85,269C1095.02,269.42 1095.19,269.83 1095.34,270.25C1099.61,281.091 1103.05,292.24 1105.64,303.6C1105.76,304.17 1105.9,304.75 1106.02,305.33C1108.44,316.324 1110.08,327.475 1110.94,338.7C1110.94,339.1 1110.94,339.51 1111.02,339.92C1111.44,345.727 1111.65,351.597 1111.66,357.53C1111.66,362.83 1111.48,368.09 1111.15,373.3C1111.15,373.87 1111.07,374.47 1111.02,375.05C1110.93,376.57 1110.8,378.05 1110.67,379.58C1118.31,385.737 1125.45,392.477 1132.05,399.74C1134.96,402.92 1137.78,406.223 1140.51,409.65C1148.82,420.058 1156.12,431.231 1162.31,443.02C1179.19,475 1188.91,512.54 1188.91,552.73Z" style="fill:rgb(108,99,255);fill-opacity:0.1;fill-rule:nonzero;"/>
    </g>
    <g transform="matrix(1,0,0,1,-11.09,-87.42)">
        <path d="M1075.91,749.56C1075.91,772.29 1052.35,793.56 1011.24,811.88L234.68,811.88C198.75,811.88 165.1,798.88 136.26,776.21C129.01,767.61 125.19,758.7 125.19,749.55C125.19,725.39 151.83,702.84 197.89,683.78L199.19,683.26C212.19,677.93 226.72,672.9 242.6,668.17C243,668.05 243.41,667.94 243.81,667.8C256.41,664.1 269.813,660.593 284.02,657.28C284.47,657.18 284.91,657.07 285.36,656.99C290.84,655.69 296.43,654.48 302.14,653.27L304.34,652.81C345.89,644.19 393.12,637.35 444.34,632.71L444.4,632.71C451.573,632.043 458.823,631.447 466.15,630.92C474.3,630.27 482.55,629.72 490.89,629.21C497.26,628.8 503.71,628.45 510.18,628.13C510.228,628.109 510.282,628.109 510.33,628.13C539.52,626.66 569.68,625.89 600.52,625.89C676.78,625.89 748.86,630.57 812.73,638.89C812.79,638.88 812.85,638.88 812.91,638.89C822.73,640.17 832.37,641.52 841.77,642.96C844.46,643.38 847.14,643.8 849.77,644.23C860.377,645.943 870.71,647.753 880.77,649.66C999.07,672.15 1075.91,708.54 1075.91,749.56Z" style="fill:rgb(108,99,255);fill-opacity:0.1;fill-rule:nonzero;"/>
    </g>
    <g transform="matrix(1,0,0,1,-11.09,-87.42)">
        <path d="M882.59,330.7C882.59,330.7 872.01,326.41 838.35,341.84C804.69,357.27 800.49,355.32 791.78,353C783.07,350.68 778.21,350.08 768.87,337.19C768.87,337.19 762.28,301.48 755.87,295.94C749.46,290.4 722.4,299.1 722.4,299.1C722.4,299.1 689.91,306.55 683.72,263.1C683.72,263.1 688.11,230.38 682.13,220.34C682.13,220.34 694.21,225.54 714.13,217.14C734.05,208.74 750,226.19 750,226.19C750,226.19 755,239.19 754.5,246.95C754,254.71 757.16,257.62 766.66,253.87C766.66,253.87 771.33,247.23 764.72,236.25C758.11,225.27 753.39,217.1 755.23,208.58C757.07,200.06 762.38,188.23 779.43,182.32C796.48,176.41 819.63,175.32 830.74,170.65C841.85,165.98 844.59,163 844.59,163C844.59,163 837.75,169.85 853.86,198.9C869.97,227.95 859.7,240.55 859.7,240.55C859.7,240.55 851.13,260.98 813.29,259.32C813.29,259.32 776.83,260.65 796.71,276.11C796.71,276.11 809.44,273.52 828.47,267.47C847.5,261.42 861.24,286.39 864.65,303.76C868.06,321.13 882.59,330.7 882.59,330.7Z" style="fill:rgb(108,99,255);fill-rule:nonzero;"/>
    </g>
    <g transform="matrix(1,0,0,1,-11.09,-87.42)">
        <path d="M833.58,185L833.78,184.94C835.24,190.48 818.95,212.76 805.02,230.47L804.86,230.34C824.5,205.4 834.71,189.29 833.58,185Z" style="fill:rgb(68,64,83);fill-rule:nonzero;"/>
    </g>
    <g transform="matrix(1,0,0,1,-11.09,-87.42)">
        <path d="M805.14,230L805.23,230.22C794.1,244.36 780.11,261.22 768.91,273.75C767.84,274.94 766.78,276.19 765.76,277.47L765.44,277.21C766.44,275.93 767.53,274.67 768.6,273.48C779.79,261 794,244.15 805.14,230Z" style="fill:rgb(68,64,83);fill-rule:nonzero;"/>
    </g>
    <g transform="matrix(1,0,0,1,-11.09,-87.42)">
        <path d="M765.71,276.89L765.93,277.27C745.55,302.72 744.2,342.27 744.15,342.58L739.85,337.58C739.9,337.26 745.19,302.52 765.71,276.89Z" style="fill:rgb(68,64,83);fill-rule:nonzero;"/>
    </g>
    <g transform="matrix(1,0,0,1,-11.09,-87.42)">
        <path d="M859,316.9C859,316.9 835,304.4 816.24,308.9C797.48,313.4 755.29,293 755.29,293C755.29,293 737.39,285.73 733.79,277.44C733.79,277.44 721.5,264.44 720.79,257.73C720.08,251.02 708.13,234.11 700.33,233.46" style="fill:none;fill-rule:nonzero;stroke:rgb(68,64,83);stroke-width:1px;"/>
    </g>
    <g transform="matrix(1,0,0,1,-11.09,-87.42)">
        <path d="M855.47,328.93C855.47,328.93 843.37,320.77 844.78,311.27" style="fill:none;fill-rule:nonzero;stroke:rgb(68,64,83);stroke-width:1px;"/>
    </g>
    <g transform="matrix(1,0,0,1,-11.09,-87.42)">
        <path d="M836.91,339.46C836.91,339.46 819.6,333.18 817.91,308.54" style="fill:none;fill-rule:nonzero;stroke:rgb(68,64,83);stroke-width:1px;"/>
    </g>
    <g transform="matrix(1,0,0,1,-11.09,-87.42)">
        <path d="M809,345.84C809,345.84 792.46,332.12 797.95,308.14" style="fill:none;fill-rule:nonzero;stroke:rgb(68,64,83);stroke-width:1px;"/>
    </g>
    <g transform="matrix(1,0,0,1,-11.09,-87.42)">
        <path d="M775.41,339.14C775.41,339.14 764.41,316.04 774.2,301.01" style="fill:none;fill-rule:nonzero;stroke:rgb(68,64,83);stroke-width:1px;"/>
    </g>
    <g transform="matrix(1,0,0,1,-11.09,-87.42)">
        <path d="M859.23,301.67C859.23,301.67 846.72,305.67 849.4,312.23" style="fill:none;fill-rule:nonzero;stroke:rgb(68,64,83);stroke-width:1px;"/>
    </g>
    <g transform="matrix(1,0,0,1,-11.09,-87.42)">
        <path d="M844.13,279C844.13,279 827.38,284.31 826.99,308" style="fill:none;fill-rule:nonzero;stroke:rgb(68,64,83);stroke-width:1px;"/>
    </g>
    <g transform="matrix(1,0,0,1,-11.09,-87.42)">
        <path d="M820.77,273.48C820.77,273.48 805.52,292.3 806.64,309.4" style="fill:none;fill-rule:nonzero;stroke:rgb(68,64,83);stroke-width:1px;"/>
    </g>
    <g transform="matrix(1,0,0,1,-11.09,-87.42)">
        <path d="M794.07,280.86C794.07,280.86 778.93,295.34 780.86,303.39" style="fill:none;fill-rule:nonzero;stroke:rgb(68,64,83);stroke-width:1px;"/>
    </g>
    <g transform="matrix(1,0,0,1,-11.09,-87.42)">
        <path d="M784.94,275.75C784.94,275.75 770.74,278.29 768.75,273.63" style="fill:none;fill-rule:nonzero;stroke:rgb(68,64,83);stroke-width:1px;"/>
    </g>
    <g transform="matrix(1,0,0,1,-11.09,-87.42)">
        <path d="M766.49,258.61C766.49,258.61 773.66,268.11 775.49,265.98" style="fill:none;fill-rule:nonzero;stroke:rgb(68,64,83);stroke-width:1px;"/>
    </g>
    <g transform="matrix(1,0,0,1,-11.09,-87.42)">
        <path d="M837.61,252.6C837.61,252.6 801.81,255.2 793.71,244.4" style="fill:none;fill-rule:nonzero;stroke:rgb(68,64,83);stroke-width:1px;"/>
    </g>
    <g transform="matrix(1,0,0,1,-11.09,-87.42)">
        <path d="M759,210.73C759,210.73 775.79,246.78 788,251.37" style="fill:none;fill-rule:nonzero;stroke:rgb(68,64,83);stroke-width:1px;"/>
    </g>
    <g transform="matrix(1,0,0,1,-11.09,-87.42)">
        <path d="M776.58,193.56C776.58,193.56 786.89,226.72 799.67,237.07" style="fill:none;fill-rule:nonzero;stroke:rgb(68,64,83);stroke-width:1px;"/>
    </g>
    <g transform="matrix(1,0,0,1,-11.09,-87.42)">
        <path d="M852.67,225.23C852.67,225.23 825.45,236.91 809.11,225.09" style="fill:none;fill-rule:nonzero;stroke:rgb(68,64,83);stroke-width:0.75px;"/>
    </g>
    <g transform="matrix(1,0,0,1,-11.09,-87.42)">
        <path d="M800.82,186.49C800.82,186.49 807.04,210.86 815.42,216.75" style="fill:none;fill-rule:nonzero;stroke:rgb(68,64,83);stroke-width:0.75px;"/>
    </g>
    <g transform="matrix(1,0,0,1,-11.09,-87.42)">
        <path d="M848.56,197.92C848.56,197.92 833.26,203.72 827.56,199.28" style="fill:none;fill-rule:nonzero;stroke:rgb(68,64,83);stroke-width:0.75px;"/>
    </g>
    <g transform="matrix(1,0,0,1,-11.09,-87.42)">
        <path d="M753.38,266.57C753.38,266.57 753.38,287.82 747.6,289.33" style="fill:none;fill-rule:nonzero;stroke:rgb(68,64,83);stroke-width:1px;"/>
    </g>
    <g transform="matrix(1,0,0,1,-11.09,-87.42)">
        <path d="M706.09,294.1C706.09,294.1 729.09,296.1 739.66,284.21" style="fill:none;fill-rule:nonzero;stroke:rgb(68,64,83);stroke-width:1px;"/>
    </g>
    <g transform="matrix(1,0,0,1,-11.09,-87.42)">
        <path d="M747.46,241.47C747.46,241.47 741.9,263.02 726.56,268.83" style="fill:none;fill-rule:nonzero;stroke:rgb(68,64,83);stroke-width:1px;"/>
    </g>
    <g transform="matrix(1,0,0,1,-11.09,-87.42)">
        <path d="M692.31,271.4C692.31,271.4 708.57,277.05 722.56,262.66" style="fill:none;fill-rule:nonzero;stroke:rgb(68,64,83);stroke-width:1px;"/>
    </g>
    <g transform="matrix(1,0,0,1,-11.09,-87.42)">
        <path d="M729.37,222.94C729.37,222.94 727.84,241.24 717.89,249.81" style="fill:none;fill-rule:nonzero;stroke:rgb(68,64,83);stroke-width:1px;"/>
    </g>
    <g transform="matrix(1,0,0,1,-11.09,-87.42)">
        <path d="M692.93,243.51C692.93,243.51 706.42,243.6 709.58,239.2" style="fill:none;fill-rule:nonzero;stroke:rgb(68,64,83);stroke-width:1px;"/>
    </g>
    <rect x="395.21" y="225.58" width="384.2" height="193.94" style="fill:rgb(51,50,61);"/>
    <rect x="275.53" y="478.44" width="624.78" height="127.66" style="fill:rgb(51,50,61);"/>
    <path d="M424.67,510.35L745.04,510.35L808.87,725.16L357.16,725.16L424.67,510.35Z" style="fill:white;fill-rule:nonzero;"/>
    <path d="M257.73,402.33L257.73,606.09L377.41,606.09L377.41,488.26L798.43,488.26L798.43,606.09L918.11,606.09L918.11,402.33L257.73,402.33Z" style="fill:rgb(80,79,96);fill-rule:nonzero;"/>
    <rect x="257.73" y="402.33" width="660.38" height="66.28" style="fill:rgb(51,50,61);fill-opacity:0.1;"/>
    <circle cx="882.52" cy="435.48" r="9.82" style="fill:rgb(140,207,77);fill-opacity:0.8;"/>
    <circle cx="838.33" cy="435.48" r="9.82" style="fill:rgb(250,89,89);fill-opacity:0.8;"/>
    <rect x="409.33" y="178.93" width="355.97" height="211.12" style="fill:white;"/>
    <g transform="matrix(1,0,0,1,-11.09,-87.42)">
        <path d="M830.54,574.49C831.29,582.66 825.12,590.59 826.92,598.59C827.3,600.3 828.04,601.92 828.31,603.59C829.05,608.34 826.22,612.84 823.51,616.82L800.28,651C799.348,652.499 798.233,653.877 796.96,655.1C792.51,659.1 785.85,658.64 780.02,659.82C775.921,660.651 772.05,662.357 768.67,664.82C768.366,665.061 768.3,665.501 768.52,665.82C770.471,668.496 773.654,670.005 776.96,669.82C777.57,670.62 776.96,671.82 776.12,672.38C774.87,673.24 773.12,673.47 772.91,675.59C772.822,676.326 772.969,677.072 773.33,677.72C774.27,679.151 775.73,680.163 777.4,680.54C785.4,683 794.13,678.68 800.15,672.8C806.17,666.92 810.49,659.5 816.4,653.51C819.67,650.2 823.4,647.36 826.76,644.15C833.48,637.75 838.76,629.96 843.76,622.15C845.411,619.885 846.656,617.351 847.44,614.66C848.06,612 847.78,609.19 848.5,606.55C849.44,603.1 851.97,600.35 854.07,597.45C858.2,591.77 860.95,584.83 860.4,577.83C859.85,570.83 855.53,563.94 848.93,561.56C846.884,560.745 844.629,560.609 842.5,561.17C839.79,562 837.8,564.24 835.95,566.38L831.54,571.47C830.441,572.597 829.568,573.924 828.97,575.38C828.39,576.877 828.748,578.582 829.88,579.72" style="fill:rgb(251,190,190);fill-rule:nonzero;"/>
    </g>
    <g transform="matrix(1,0,0,1,-11.09,-87.42)">
        <path d="M830.54,574.49C831.29,582.66 825.12,590.59 826.92,598.59C827.3,600.3 828.04,601.92 828.31,603.59C829.05,608.34 826.22,612.84 823.51,616.82L800.28,651C799.348,652.499 798.233,653.877 796.96,655.1C792.51,659.1 785.85,658.64 780.02,659.82C775.921,660.651 772.05,662.357 768.67,664.82C768.366,665.061 768.3,665.501 768.52,665.82C770.471,668.496 773.654,670.005 776.96,669.82C777.57,670.62 776.96,671.82 776.12,672.38C774.87,673.24 773.12,673.47 772.91,675.59C772.822,676.326 772.969,677.072 773.33,677.72C774.27,679.151 775.73,680.163 777.4,680.54C785.4,683 794.13,678.68 800.15,672.8C806.17,666.92 810.49,659.5 816.4,653.51C819.67,650.2 823.4,647.36 826.76,644.15C833.48,637.75 838.76,629.96 843.76,622.15C845.411,619.885 846.656,617.351 847.44,614.66C848.06,612 847.78,609.19 848.5,606.55C849.44,603.1 851.97,600.35 854.07,597.45C858.2,591.77 860.95,584.83 860.4,577.83C859.85,570.83 855.53,563.94 848.93,561.56C846.884,560.745 844.629,560.609 842.5,561.17C839.79,562 837.8,564.24 835.95,566.38L831.54,571.47C830.441,572.597 829.568,573.924 828.97,575.38C828.39,576.877 828.748,578.582 829.88,579.72" style="fill-opacity:0.05;fill-rule:nonzero;"/>
    </g>
    <g transform="matrix(1,0,0,1,-11.09,-87.42)">
        <path d="M848.13,784.78C843.05,787.87 836.73,788.07 830.83,787.34C829.83,787.23 828.76,787.16 828.15,787.89C827.27,788.96 828.31,790.52 829.38,791.38C832.866,793.989 836.957,795.672 841.27,796.27C845.12,796.807 849.003,797.064 852.89,797.04C863.49,797.22 874.15,797.4 884.65,795.87C885.256,795.825 885.846,795.651 886.38,795.36C887.058,794.887 887.527,794.17 887.69,793.36C888.42,790.64 887.03,787.7 884.94,785.81C882.85,783.92 880.16,782.86 877.53,781.81L868.31,778.22C866.14,777.37 862.67,775.14 860.31,775.31C856,775.66 851.79,782.64 848.13,784.78Z" style="fill:rgb(63,61,86);fill-rule:nonzero;"/>
    </g>
    <g transform="matrix(1,0,0,1,-11.09,-87.42)">
        <path d="M848.13,784.78C843.05,787.87 836.73,788.07 830.83,787.34C829.83,787.23 828.76,787.16 828.15,787.89C827.27,788.96 828.31,790.52 829.38,791.38C832.866,793.989 836.957,795.672 841.27,796.27C845.12,796.807 849.003,797.064 852.89,797.04C863.49,797.22 874.15,797.4 884.65,795.87C885.256,795.825 885.846,795.651 886.38,795.36C887.058,794.887 887.527,794.17 887.69,793.36C888.42,790.64 887.03,787.7 884.94,785.81C882.85,783.92 880.16,782.86 877.53,781.81L868.31,778.22C866.14,777.37 862.67,775.14 860.31,775.31C856,775.66 851.79,782.64 848.13,784.78Z" style="fill-opacity:0.05;fill-rule:nonzero;"/>
    </g>
    <g transform="matrix(1,0,0,1,-11.09,-87.42)">
        <path d="M854.56,662.33C850.73,667.44 846.75,673.33 847.7,679.66C848.21,683.07 850.12,686.08 851.52,689.23C853.273,693.564 854.569,698.068 855.39,702.67C856.83,709.36 858.27,716.07 859.15,722.86C860.15,730.53 855.45,752.72 855.01,760.45C854.9,762.31 854.69,764.33 853.39,765.67C852.88,766.2 852.2,766.67 851.98,767.32C851.84,767.981 851.947,768.672 852.28,769.26C854.45,774.15 858.88,777.78 863.8,779.86C868.72,781.94 880.69,785.51 886.03,785.7C886.739,785.785 887.458,785.689 888.12,785.42C888.841,784.989 889.408,784.341 889.74,783.57C893.6,776.2 889.89,749.96 889.95,741.63C889.95,734.63 891.64,727.79 891.34,720.85C891.09,715.28 889.6,709.85 889.06,704.29C888.17,695.18 889.84,686.04 891.52,677.04C892.8,670.15 894.08,663.25 895.72,656.43C896.72,652.28 897.88,648.08 900.17,644.43C901.98,641.56 904.44,639.17 906.51,636.43C912.245,628.912 914.794,619.43 913.6,610.05C913.48,609.13 900.28,613.4 899.13,613.9C894.393,615.914 890.034,618.721 886.24,622.2C883.24,625.1 880.79,628.99 878.11,632.25C874.33,636.85 870.6,641.487 866.92,646.16C862.74,651.527 858.62,656.917 854.56,662.33Z" style="fill:rgb(70,67,83);fill-rule:nonzero;"/>
    </g>
    <g transform="matrix(1,0,0,1,-11.09,-87.42)">
        <path d="M854.56,662C850.73,667.11 846.75,673 847.7,679.34C848.21,682.74 850.12,685.75 851.52,688.9C853.271,693.234 854.568,697.738 855.39,702.34C856.83,709.03 858.27,715.74 859.15,722.53C860.15,730.2 855.45,752.4 855.01,760.13C854.9,761.98 854.69,764.01 853.39,765.34C852.88,765.87 852.2,766.34 851.98,766.99C851.828,767.671 851.935,768.384 852.28,768.99C854.45,773.87 858.88,777.51 863.8,779.58C868.72,781.65 880.69,783.58 886.03,783.75C886.739,783.835 887.458,783.739 888.12,783.47C888.841,783.039 889.408,782.391 889.74,781.62C893.6,774.25 889.89,749.68 889.95,741.36C889.95,734.36 891.64,727.51 891.34,720.57C891.09,715 889.6,709.57 889.06,704.01C888.17,694.9 889.84,685.76 891.52,676.77C892.8,669.87 894.08,662.97 895.72,656.15C896.72,652 897.88,647.8 900.17,644.15C901.98,641.29 904.44,638.89 906.51,636.21C912.238,628.689 914.786,619.209 913.6,609.83C913.48,608.9 900.28,613.17 899.13,613.68C894.389,615.696 890.029,618.51 886.24,622C883.24,624.91 880.79,628.79 878.11,632C874.33,636.6 870.6,641.24 866.92,645.92C862.74,651.253 858.62,656.613 854.56,662Z" style="fill-opacity:0.05;fill-rule:nonzero;"/>
    </g>
    <circle cx="800.78" cy="440.87" r="21.53" style="fill:rgb(251,190,190);"/>
    <g transform="matrix(1,0,0,1,-11.09,-87.42)">
        <path d="M831.25,527.39C835.266,533.803 841.719,538.317 849.12,539.89L847.5,545.76C844.7,555.89 841.5,566.6 833.73,573.62C834.58,570.19 833.48,566.5 831.54,563.55C829.465,560.68 827.005,558.109 824.23,555.91L811.84,545.13C811.471,544.857 811.155,544.518 810.91,544.13C810.61,543.372 810.61,542.528 810.91,541.77C812.49,536.86 817,533.77 820.65,530.47C822.486,528.75 824.129,526.836 825.55,524.76C828.09,521.23 829.62,524.76 831.25,527.39Z" style="fill:rgb(251,190,190);fill-rule:nonzero;"/>
    </g>
    <g transform="matrix(1,0,0,1,-11.09,-87.42)">
        <path d="M783.5,506.65L783.02,502.65C786.42,503.53 789.64,500.65 791.81,497.65C793.98,494.65 796,491.13 799.31,489.89C803.31,488.37 807.59,490.8 811.43,492.8C815.735,495.196 820.461,496.741 825.35,497.35C826.13,497.376 826.903,497.504 827.65,497.73C830.15,498.62 831.34,501.73 831.7,504.6C832.06,507.47 831.96,510.47 833.2,513.01C834.13,514.93 835.74,516.36 836.72,518.25C839.35,523.35 836.81,530.31 839.59,535.31L832.69,528.98C832.05,528.4 831.16,527.8 830.47,528.29C829.78,528.78 829.88,529.52 829.65,530.19C828.98,532.19 826.53,532.75 824.74,531.98C822.95,531.21 821.66,529.51 820.35,527.98C817.3,524.38 813.67,521.22 809.35,519.68C805.57,518.23 801.342,518.482 797.76,520.37C794.54,522.19 792.18,526.43 788.24,526.58C782.83,526.78 780.58,516.71 778.07,512.73C779.948,511.309 780.549,508.724 779.49,506.62C779.93,506.45 783.43,506 783.5,506.65Z" style="fill:rgb(70,67,83);fill-rule:nonzero;"/>
    </g>
    <g transform="matrix(1,0,0,1,-11.09,-87.42)">
        <path d="M873.24,784.61C868.986,788.403 863.459,790.463 857.76,790.38C856.31,790.38 854.3,790.66 854.29,792.11C854.316,792.541 854.461,792.957 854.71,793.31C856.515,796.309 859.365,798.539 862.71,799.57C865.81,800.51 869.13,800.35 872.37,800.19L881.82,799.7C883.6,799.6 885.39,799.51 887.17,799.29C888.95,799.07 890.87,798.7 892.73,798.43C897.286,797.779 901.893,797.561 906.49,797.78C907.71,797.83 909.12,797.78 909.88,796.86C910.64,795.94 910.23,794.28 909.95,792.95C909.39,790.21 909.95,787.34 909.43,784.59C908.52,779.76 904.37,776.07 899.79,774.32C895.54,772.7 888,770.85 883.97,773.54C879.65,776.44 877.05,781.16 873.24,784.61Z" style="fill:rgb(63,61,86);fill-rule:nonzero;"/>
    </g>
    <g transform="matrix(1,0,0,1,-11.09,-87.42)">
        <path d="M882.6,623C883.44,627 887.27,630 887.39,634C887.48,637.24 885.16,640 883.5,642.75C881.914,645.631 880.576,648.642 879.5,651.75C876.344,659.817 872.433,667.568 867.82,674.9C865.6,678.41 863.12,682.23 863.63,686.36C863.979,688.287 864.656,690.141 865.63,691.84L872.28,705.05C873.741,707.689 874.882,710.492 875.68,713.4C876.25,715.91 876.31,718.51 876.68,721.07C877.73,729.17 881.53,737.33 879.29,745.18C879.09,745.86 878.39,746.68 877.86,746.18C880.05,750.28 881.86,754.42 881.65,759.07C881.56,761.51 880.81,764.07 881.72,766.33C882.235,767.21 882.575,768.181 882.72,769.19C882.72,769.85 882.41,770.48 882.34,771.19C882.16,773.06 883.87,774.62 885.66,775.19C887.45,775.76 889.38,775.74 891.18,776.28C894.65,777.28 897.11,780.28 900.08,782.36C903.087,784.445 906.641,785.604 910.3,785.69C910.819,785.745 911.342,785.641 911.8,785.39C912.33,784.93 912.636,784.262 912.64,783.56C912.964,780.2 911.589,776.892 908.98,774.75C908.421,774.394 907.958,773.906 907.63,773.33C907.461,772.818 907.417,772.273 907.5,771.74C908.04,764.47 907.91,757.166 907.11,749.92C906.749,747.625 906.632,745.299 906.76,742.98C906.96,741.05 907.54,739.13 907.32,737.2C907.1,735.27 906.13,733.53 905.55,731.67C904.55,728.37 904.81,724.83 904.7,721.37C904.52,715.37 903.15,709.49 901.78,703.65C901.25,701.36 900.65,698.95 899.02,697.25C897.64,695.81 895.41,694.42 895.93,692.5C896.214,691.789 896.643,691.145 897.19,690.61C898.493,688.981 899.068,686.886 898.78,684.82C899.982,685.14 901.253,684.547 901.78,683.42C912.59,678.33 921.33,668.13 925.18,656.81C925.396,655.975 925.733,655.177 926.18,654.44C927.18,653.04 928.92,652.44 930.46,651.66C935.3,649.23 938.65,644.66 941.72,640.19C943.51,637.59 945.29,634.91 946.06,631.86C946.481,629.888 946.682,627.876 946.66,625.86L946.93,615.44C946.984,614.767 946.917,614.089 946.73,613.44C946.476,612.818 946.094,612.256 945.61,611.79C942.678,608.668 938.822,606.565 934.61,605.79C931.77,605.28 928.87,605.38 926,605.14C920.43,604.68 914.93,602.96 909.36,603.36C900.6,604 892.81,610.07 888.68,617.82C887.23,620.59 885.71,623 882.6,623Z" style="fill:rgb(70,67,83);fill-rule:nonzero;"/>
    </g>
    <g transform="matrix(1,0,0,1,-11.09,-87.42)">
        <path d="M834,555.24C834.127,556.847 833.912,558.462 833.37,559.98C832.69,561.44 830.97,562.57 829.48,561.98C829.93,560.98 828.73,559.79 827.62,559.92C826.506,560.168 825.584,560.951 825.16,562.01C824.414,563.496 824.165,565.182 824.45,566.82C824.8,568.82 825.98,570.82 825.67,572.82C825.42,574.52 824.17,576.22 824.84,577.82C825.271,578.539 825.811,579.187 826.44,579.74C828.255,581.965 828.002,585.267 825.87,587.19L842.65,587.52C842.04,590.33 843.29,593.2 844.73,595.69C852.893,609.553 867.102,618.816 883.08,620.69C882.061,621.292 881.434,622.391 881.434,623.574C881.434,624.395 881.735,625.187 882.28,625.8C883.64,627.15 885.95,626.98 887.66,626.1C889.37,625.22 890.72,623.77 892.28,622.65C895.031,620.69 898.396,619.781 901.76,620.09C903.86,620.29 905.9,620.97 908.01,621.09C914.23,621.42 919.57,616.95 925.52,615.09C929.88,613.75 934.81,613.75 938.52,611.03C940.1,609.86 941.39,607.94 940.93,606.03C940.54,604.934 939.923,603.932 939.12,603.09C937.01,600.37 935.77,597.09 934.27,594C931.278,587.876 927.164,582.367 922.14,577.76C918.356,574.443 914.346,571.392 910.14,568.63C909.116,567.866 908.025,567.197 906.88,566.63C905.353,566.132 903.862,565.528 902.42,564.82C900.42,563.58 899.31,561.39 897.8,559.62C894.47,555.74 889.36,553.95 885.26,550.9C882.51,548.9 880.09,546.16 876.8,545.17C875.21,544.69 873.51,544.65 871.91,544.17C868.29,543.07 865.65,539.85 862.09,538.55C859.27,537.55 856.17,537.79 853.19,537.42C849.912,537.014 846.78,535.823 844.06,533.95C843.157,533.222 842.144,532.642 841.06,532.23C836.57,530.86 836.2,539.23 835.78,542.14C835.11,546.59 834,550.87 834,555.24Z" style="fill:rgb(108,99,255);fill-rule:nonzero;"/>
    </g>
    <g transform="matrix(1,0,0,1,-11.09,-87.42)">
        <path d="M838.38,583.34C839.13,591.51 832.96,599.43 834.76,607.44C835.14,609.15 835.88,610.77 836.15,612.44C836.9,617.19 834.06,621.69 831.35,625.66L808.12,659.76C807.188,661.259 806.073,662.637 804.8,663.86C800.35,667.86 793.69,667.4 787.86,668.58C783.762,669.413 779.891,671.119 776.51,673.58C776.206,673.821 776.14,674.261 776.36,674.58C778.307,677.26 781.493,678.77 784.8,678.58C785.41,679.39 784.8,680.58 783.96,681.14C782.71,682.01 780.96,682.24 780.75,684.36C780.662,685.096 780.809,685.842 781.17,686.49C782.113,687.918 783.571,688.929 785.24,689.31C793.24,691.77 801.97,687.45 807.99,681.57C814.01,675.69 818.33,668.27 824.25,662.28C827.52,658.97 831.25,656.13 834.6,652.92C841.33,646.52 846.55,638.73 851.6,630.92C853.249,628.654 854.494,626.12 855.28,623.43C855.9,620.77 855.62,617.96 856.34,615.32C857.28,611.87 859.81,609.11 861.91,606.22C866.04,600.54 868.79,593.6 868.24,586.6C867.69,579.6 863.37,572.71 856.77,570.33C854.725,569.51 852.469,569.374 850.34,569.94C847.64,570.77 845.64,573.01 843.79,575.15L839.38,580.24C838.281,581.364 837.411,582.693 836.82,584.15C836.237,585.641 836.591,587.344 837.72,588.48" style="fill:rgb(251,190,190);fill-rule:nonzero;"/>
    </g>
    <g transform="matrix(1,0,0,1,-11.09,-87.42)">
        <path d="M850.14,549.77C847.08,549.95 843.72,550.25 841.56,552.43C840.66,553.431 839.931,554.573 839.4,555.81C837.31,560.08 835.27,564.54 835.12,569.29C834.99,573.09 836.12,576.8 836.67,580.56C837.15,583.68 835.93,586.86 835.67,590.02C839.46,588.86 844.46,587.28 847.9,585.32C850.154,583.845 852.549,582.599 855.05,581.6C858.7,580.39 864.83,582.47 868.27,584.18C868.46,581.74 866.64,577.51 866.83,575.07C866.86,574.049 867.042,573.038 867.37,572.07C867.888,571.045 868.501,570.071 869.2,569.16C871.914,564.768 871.48,559.089 868.13,555.16C865.06,551.7 860.24,550.4 855.65,549.87C852.756,549.532 849.84,549.428 846.93,549.56" style="fill:rgb(108,99,255);fill-rule:nonzero;"/>
    </g>
    <g transform="matrix(1,0,0,1,-11.09,-87.42)">
        <path d="M397.09,479.81L377.37,451.21C377.37,451.21 377,444.13 375.71,442.48C374.42,440.83 375.43,437.15 375.43,437.15C375.43,437.15 376.82,435.15 375.62,434.94C374.42,434.73 375.43,430.25 375.43,430.25L375.34,423.08C375.34,423.08 376.45,416.18 375.53,414.53C374.976,413.617 375.011,412.458 375.62,411.58C376.229,410.702 376.72,407.63 375.62,406.58C374.52,405.53 374.79,399.41 375.06,394.53C375.33,389.65 373.13,386.9 373.13,386.17C373.13,385.44 365.85,378.26 365.85,377.61C365.85,376.96 361.24,374.3 358.47,373.61C355.7,372.92 354.33,372.32 354.42,371.95C354.51,371.58 350.09,370.12 350.09,370.12C350.09,370.12 346.22,369.84 344.74,367.91C343.26,365.98 338.74,365.42 338.63,365.4L338.54,365.02C338.54,364.88 338.49,364.74 338.46,364.6C338.825,364.018 339.159,363.417 339.46,362.8L339.72,362.24C341.339,362.25 342.923,361.758 344.25,360.83C345.571,359.735 346.373,358.134 346.46,356.42C346.539,354.72 346.166,353.029 345.38,351.52C344.57,349.87 343.38,348.15 343.8,346.35C343.98,345.58 344.44,344.9 344.68,344.14C345.038,342.657 344.801,341.091 344.02,339.78C343.32,338.45 342.35,337.27 341.57,335.98C340.581,334.328 339.919,332.502 339.62,330.6C339.564,329.588 339.324,328.595 338.91,327.67C338.492,327.018 337.939,326.462 337.29,326.04C334.405,323.982 330.922,322.928 327.38,323.04C324.87,323.12 322.38,323.8 319.88,323.49C318.391,323.234 316.925,322.853 315.5,322.35C312.41,321.43 308.84,321.06 306.15,322.83C303.46,324.6 302.39,328.08 300.56,330.83C298.95,333.23 296.56,335.25 295.36,337.83L295.36,337.69C295.058,338.277 294.826,338.898 294.67,339.54C294.327,341.577 294.467,343.667 295.08,345.64C295.215,346.702 295.748,347.674 296.57,348.36C297.48,348.95 298.73,348.81 299.79,349L299.67,349.52C297.444,360.181 303.841,370.898 314.28,374L314.28,374.56C314.278,375.088 314.244,375.616 314.18,376.14C314.116,376.664 304.91,374.23 302.42,375.52C299.93,376.81 295.05,377.82 294.31,378.52C293.57,379.22 291.73,378.71 290.07,383.03C288.41,387.35 288.23,391.76 286.07,393.79C283.91,395.82 282.85,397.19 282.75,398.66C282.65,400.13 283.03,400.5 282.2,400.96C281.37,401.42 280.2,403.35 280.54,404.09C280.8,405.123 280.402,406.215 279.54,406.84C278.651,407.465 278.159,408.517 278.25,409.6C278.341,410.683 277.69,411.6 276.4,412.09C275.11,412.58 274.28,415.58 274.28,415.58L270.1,420.38L261.82,411.22C260.534,409.804 258.313,409.691 256.89,410.97L252.82,414.63C251.252,415.011 249.834,415.854 248.75,417.05C247.868,417.965 247.154,419.028 246.64,420.19L244.42,422.19C242.989,423.963 242.76,426.434 243.84,428.44L249.15,434.31L249.15,434.36C247.269,434.526 245.481,435.254 244.02,436.45C236.1,443.45 236.02,449.88 237.2,452.82C238.38,455.76 248.44,467.07 248.44,467.07C248.44,467.07 254.28,474.66 262.71,478.69L262.65,478.76C262.476,478.941 262.313,479.131 262.16,479.33L262.02,479.51L261.89,479.69L261.74,479.91C261.7,479.968 261.663,480.028 261.63,480.09L261.47,480.35C261.433,480.408 261.399,480.468 261.37,480.53C261.3,480.65 261.24,480.77 261.18,480.89C261.158,480.929 261.138,480.969 261.12,481.01C261.04,481.17 260.96,481.33 260.89,481.51L260.81,481.69C260.76,481.81 260.72,481.93 260.67,482.06C260.639,482.138 260.612,482.219 260.59,482.3L260.47,482.66C260.437,482.745 260.411,482.832 260.39,482.92C260.39,483.05 260.31,483.18 260.28,483.32C260.25,483.46 260.23,483.48 260.21,483.57C260.19,483.66 260.11,484 260.07,484.23C260.07,484.31 260.07,484.4 260.02,484.49C259.97,484.58 259.97,484.8 259.94,484.96C259.91,485.12 259.94,485.18 259.94,485.3L259.88,485.75L259.88,486.11C259.88,486.28 259.88,486.45 259.83,486.63C259.78,486.81 259.83,486.84 259.83,486.95L259.83,487.84C259.65,498.6 260.28,500.16 260.28,500.16C261.117,502.182 262.995,503.592 265.17,503.83C265.695,503.871 266.222,503.844 266.74,503.75C271.54,502.92 282.74,500.99 286.74,501.75C289.13,502.19 293.54,501.53 296.68,500.94L297.51,500.78L298.08,502.61L299.9,502.11L301.45,503L302.45,503.57C304.27,509.73 311.65,507.63 311.65,507.63L313.4,508.63L331.19,509.09C333.187,510.293 335.297,511.298 337.49,512.09C337.78,512.185 338.078,512.252 338.38,512.29C340.043,512.425 341.713,512.455 343.38,512.38C344.74,512.38 345.79,512.29 345.79,512.29C345.79,512.29 345.61,507.46 345.35,502.05C350.865,501.914 356.367,501.463 361.83,500.7C371.33,499.04 375.29,490.4 376.75,485.78C377.187,487.667 377.498,489.581 377.68,491.51C378.068,493.206 378.563,494.876 379.16,496.51C379.669,497.816 380.341,499.052 381.16,500.19C388.16,497.8 383.92,494.19 382.45,492.65C380.98,491.11 383.45,489.8 383.45,489.8C383.45,489.8 385.39,488.51 385.2,487.32C385.01,486.13 384.92,484.84 391.2,484.93C397.48,485.02 397.09,479.81 397.09,479.81ZM299.77,421.1C299.85,421.62 300.77,427.29 301.51,428.78C301.731,429.764 301.802,430.775 301.72,431.78C298.01,431.48 294.14,431.32 294.14,431.32C294.249,431.455 294.318,431.618 294.34,431.79L293.75,431.66L292.91,431.46L299.75,421.05L299.77,421.1ZM286.21,442.66L292.64,443.66L293.18,443.74C292.998,444.731 292.888,445.733 292.85,446.74C292.85,446.84 292.99,446.95 293.2,447.08C293.111,447.585 293.07,448.097 293.08,448.61C293.18,449.11 296.18,450.21 299.63,451.12C299.58,451.31 299.54,451.49 299.49,451.65C296.44,450.05 291.65,449.3 291.1,448.11C290.55,446.92 274.23,441.22 274.23,441.22L272.61,440.41L276.9,441.22L278.08,441.1C280.753,441.796 283.469,442.317 286.21,442.66Z" style="fill:url(#_Linear1);fill-rule:nonzero;"/>
    </g>
    <g transform="matrix(1,0,0,1,-11.09,-87.42)">
        <path d="M376.11,483.81C376.11,483.81 373.56,499.25 360.59,501.53C347.62,503.81 304.32,503.36 304.32,503.36C304.32,503.36 279.56,499.79 270.61,478.88C261.66,457.97 255.9,449.64 263.61,449.28C271.32,448.92 312.67,463.28 315.04,463.44C317.41,463.6 378.4,431.65 376.11,483.81Z" style="fill:rgb(101,97,125);fill-rule:nonzero;"/>
    </g>
    <g transform="matrix(1,0,0,1,-11.09,-87.42)">
        <path d="M376.11,483.81C376.11,483.81 373.56,499.25 360.59,501.53C347.62,503.81 304.32,503.36 304.32,503.36C304.32,503.36 279.56,499.79 270.61,478.88C261.66,457.97 255.9,449.64 263.61,449.28C271.32,448.92 312.67,463.28 315.04,463.44C317.41,463.6 378.4,431.65 376.11,483.81Z" style="fill-opacity:0.05;fill-rule:nonzero;"/>
    </g>
    <g transform="matrix(1,0,0,1,-11.09,-87.42)">
        <path d="M260,501C260.818,503.012 262.681,504.417 264.84,504.65C265.365,504.682 265.892,504.652 266.41,504.56C271.16,503.74 282.3,501.82 286.23,502.56C288.59,502.99 292.96,502.34 296.07,501.76C298.14,501.37 299.66,501 299.66,501C299.66,501 296,488.85 295.55,488.49C295.1,488.13 279.1,478.49 279.1,478.49L266.44,477.58C264.736,477.835 263.195,478.738 262.14,480.1C260.81,481.72 259.66,484.37 259.58,488.72C259.37,499.43 260,501 260,501Z" style="fill:rgb(63,61,86);fill-rule:nonzero;"/>
    </g>
    <g transform="matrix(1,0,0,1,-11.09,-87.42)">
        <path d="M260,501C260.818,503.012 262.681,504.417 264.84,504.65C263.6,503.049 262.452,501.38 261.4,499.65L261.47,490.79C260.96,485.866 262.818,480.981 266.47,477.64C270.122,474.299 259.8,478.09 259.61,488.78C259.42,499.47 260,501 260,501Z" style="fill-opacity:0.05;fill-rule:nonzero;"/>
    </g>
    <g transform="matrix(1,0,0,1,-11.09,-87.42)">
        <path d="M314.91,481.62L326.7,472.39L345.24,454.12L340.24,453.89C339.49,454.37 337.39,455.89 337.31,457.71C337.22,459.94 332.31,457.87 329.74,459.14C327.17,460.41 314.67,476.44 312.48,476.33C310.29,476.22 308.55,475.22 307.63,476.78L307.57,476.88L314.91,481.62Z" style="fill-opacity:0.1;fill-rule:nonzero;"/>
    </g>
    <g transform="matrix(1,0,0,1,-11.09,-87.42)">
        <path d="M262.11,480.12C262.53,480.32 262.96,480.52 263.39,480.7C272.34,484.54 283.39,492.58 284.22,494.04C284.72,494.93 291.13,498.82 296.07,501.74C298.14,501.35 299.66,500.98 299.66,500.98C299.66,500.98 296,488.83 295.55,488.47C295.1,488.11 279.1,478.47 279.1,478.47L266.44,477.56C264.719,477.817 263.165,478.736 262.11,480.12Z" style="fill-opacity:0.1;fill-rule:nonzero;"/>
    </g>
    <g transform="matrix(1,0,0,1,-11.09,-87.42)">
        <path d="M237.27,453.94C238.45,456.86 248.41,468.1 248.41,468.1C248.41,468.1 254.71,476.32 263.67,480.1C272.63,483.88 283.67,491.98 284.49,493.44C285.02,494.38 292.16,498.68 297.18,501.63L298.31,502.29L300.8,503.74L302.12,504.49C302.12,504.49 305.18,502.04 308.23,499.57C311.28,497.1 314.23,494.68 314.23,494.57C314.23,494.46 315.51,491.19 315.23,491.01C314.95,490.83 314.46,489.65 313.3,488.18C312.076,486.55 310.482,485.234 308.65,484.34C306,482.978 303.886,480.761 302.65,478.05C301.414,475.339 302.25,477.76 301.65,477.37C300.406,476.515 299.017,475.895 297.55,475.54C295.55,475.29 291.79,471.18 291.79,471.18C290.328,470.228 289.109,468.947 288.23,467.44C287.23,465.44 273.1,455.7 271.79,454.8L306.13,476.86L314.35,482.14L326.14,472.92L344.68,454.65L338.56,454.37C329.56,453.98 313.56,453.37 311.56,453.83C309.922,454.207 308.234,454.319 306.56,454.16C304.886,454.001 302,454.36 298.98,452.77C295.96,451.18 291.21,450.43 290.66,449.25C290.11,448.07 273.95,442.41 273.95,442.41C273.95,442.41 251.95,430.72 244.08,437.66C236.21,444.6 236.08,451 237.27,453.94Z" style="fill:rgb(101,97,125);fill-rule:nonzero;"/>
    </g>
    <g transform="matrix(1,0,0,1,-11.09,-87.42)">
        <path d="M308.24,386.89L311.07,396.3L314.73,417.49L328.16,418.4L332,412L335.88,405.56C335.88,405.56 338.3,397 340.04,388.72C341.57,381.39 342.58,374.27 340.91,373.5C339.42,372.82 338.45,370.35 337.81,367.69C337.73,367.37 337.66,367.03 337.6,366.69C337.152,364.442 336.851,362.167 336.7,359.88C336.549,357.593 308.57,358.42 312.5,370.02C313.201,372.002 313.56,374.088 313.56,376.19C313.56,376.73 313.56,377.26 313.46,377.76C313.066,381.395 311.173,384.706 308.24,386.89Z" style="fill:rgb(238,142,158);fill-rule:nonzero;"/>
    </g>
    <g transform="matrix(1,0,0,1,-11.09,-87.42)">
        <path d="M302.4,385.34L303.4,401.34L305.68,414.95L308.24,421.26L310.53,455.74C310.53,455.74 332.53,458.29 337.91,455.69C338.307,455.538 338.653,455.278 338.91,454.94C345.38,445.17 343.26,416.87 343.26,416.87L345.72,398.6L344.08,389.12L340.08,388.7L337.02,388.37C337.02,388.37 336.33,389.22 335.33,390.54C332.62,394.11 327.64,401.15 327.98,404.08C328.43,408.08 327.43,412.21 325.87,412.85C324.31,413.49 323.04,414.59 322.77,413.49C322.381,412.568 322.284,411.549 322.49,410.57C322.77,409.01 321.3,404.26 321.3,404.26C321.3,404.26 318.84,398.69 319.02,396.32C319.2,393.95 318.75,391.2 318.02,390.56C317.29,389.92 316.28,389.28 317.1,386.36C317.92,383.44 313.5,377.75 313.5,377.75L302.4,385.34Z" style="fill:rgb(227,232,244);fill-rule:nonzero;"/>
    </g>
    <g transform="matrix(1,0,0,1,-11.09,-87.42)">
        <path d="M331.49,425.26L332.41,452.57L337.68,455.5C338.076,455.341 338.421,455.079 338.68,454.74C345.15,444.97 343.03,416.67 343.03,416.67L345.5,398.4L343.85,388.92L339.85,388.5C341.39,381.17 342.39,374.06 340.72,373.28C339.23,372.6 338.26,370.13 337.63,367.48L334.78,386.8C334.78,386.8 335.02,388.54 335.1,390.34C335.218,391.478 335.141,392.628 334.87,393.74C334.501,395.235 334.439,396.79 334.69,398.31C333.04,401.21 332.22,406.59 331.82,411.78C331.28,418.68 331.49,425.26 331.49,425.26Z" style="fill-opacity:0.1;fill-rule:nonzero;"/>
    </g>
    <g transform="matrix(1,0,0,1,-11.09,-87.42)">
        <path d="M337.71,367C337.71,367 342.32,367.57 343.78,369.49C345.24,371.41 349.08,371.69 349.08,371.69C349.08,371.69 353.46,373.15 353.37,373.51C353.28,373.87 354.65,374.43 357.37,375.16C360.09,375.89 364.68,378.54 364.68,379.16C364.68,379.78 371.89,386.92 371.89,387.65C371.89,388.38 374.08,391.12 373.81,395.96C373.54,400.8 373.26,406.96 374.36,407.96C375.46,408.96 374.36,412.89 374.36,412.89C373.757,413.762 373.722,414.912 374.27,415.82C375.18,417.46 374.08,424.31 374.08,424.31L374.18,431.44C374.18,431.44 373.18,435.91 374.36,436.1C375.54,436.29 374.18,438.29 374.18,438.29C374.18,438.29 373.18,441.94 374.45,443.59C375.72,445.24 376.09,452.26 376.09,452.26L395.64,480.67C395.64,480.67 395.92,485.88 389.71,485.79C383.5,485.7 383.58,486.98 383.77,488.16C383.96,489.34 382.03,490.63 382.03,490.63C382.03,490.63 379.57,491.91 381.03,493.46C382.49,495.01 386.69,498.58 379.75,500.95C378.932,499.822 378.26,498.596 377.75,497.3C377.162,495.688 376.674,494.042 376.29,492.37C375.906,490.698 375.65,485.42 374.37,484.51C373.09,483.6 373.27,479.21 373.27,479.21C373.27,479.21 375.1,475.65 372.54,474.21C369.98,472.77 332.9,452.21 332.9,452.21L332,424.89C332,424.89 331.36,404.7 335.2,397.94C334.949,396.42 335.011,394.865 335.38,393.37C336.02,391.73 335.29,386.43 335.29,386.43L337.71,367Z" style="fill:rgb(63,61,86);fill-rule:nonzero;"/>
    </g>
    <g transform="matrix(1,0,0,1,-11.09,-87.42)">
        <path d="M313.77,378C313.77,378 304.59,376.11 302.12,377.39C299.65,378.67 294.82,379.67 294.12,380.39C293.42,381.11 291.57,380.58 289.92,384.87C288.27,389.16 288.1,393.55 285.99,395.56C283.88,397.57 282.8,398.94 282.71,400.4C282.62,401.86 282.98,402.23 282.16,402.68C281.34,403.13 280.16,405.06 280.51,405.79C280.86,406.52 299.51,422.6 299.51,422.6C299.51,422.6 300.43,428.72 301.25,430.27C302.07,431.82 300.34,453.2 298.51,454.66C296.68,456.12 310.8,456 310.8,456C310.8,456 311.44,442 311.99,441.24C312.54,440.48 311.62,425.53 311.62,425.53C311.62,425.53 311.53,412.74 312.72,409.36C313.91,405.98 313.72,394.74 313.72,394.74C313.72,394.74 314.77,388 316.05,386.43C317.33,384.86 313.77,378 313.77,378Z" style="fill-opacity:0.1;fill-rule:nonzero;"/>
    </g>
    <g transform="matrix(1,0,0,1,-11.09,-87.42)">
        <path d="M313.5,377.73C313.5,377.73 304.32,375.84 301.85,377.11C299.38,378.38 294.54,379.4 293.85,380.11C293.16,380.82 291.29,380.29 289.65,384.59C288.01,388.89 287.82,393.26 285.72,395.27C283.62,397.28 282.52,398.65 282.43,400.11C282.34,401.57 282.71,401.94 281.88,402.4C281.05,402.86 279.88,404.77 280.24,405.5C280.6,406.23 299.24,422.31 299.24,422.31C299.24,422.31 300.15,428.43 300.98,429.98C301.81,431.53 300.06,452.91 298.23,454.37C296.4,455.83 310.57,455.7 310.57,455.7C310.57,455.7 311.21,441.7 311.75,440.95C312.29,440.2 311.39,425.23 311.39,425.23C311.39,425.23 311.3,412.45 312.49,409.07C313.68,405.69 313.54,394.45 313.54,394.45C313.54,394.45 314.59,387.71 315.87,386.14C317.15,384.57 313.5,377.73 313.5,377.73Z" style="fill:rgb(63,61,86);fill-rule:nonzero;"/>
    </g>
    <g transform="matrix(1,0,0,1,-11.09,-87.42)">
        <path d="M312.54,370C313.241,371.982 313.6,374.068 313.6,376.17C322.801,378.865 332.736,374.933 337.6,366.67C337.152,364.422 336.851,362.147 336.7,359.86C336.549,357.573 308.61,358.39 312.54,370Z" style="fill-opacity:0.1;fill-rule:nonzero;"/>
    </g>
    <g transform="matrix(1,0,0,1,-11.09,-87.42)">
        <path d="M298.65,355.56C298.65,355.565 298.65,355.569 298.65,355.574C298.65,367.056 308.098,376.504 319.58,376.504C331.062,376.504 340.51,367.056 340.51,355.574C340.51,344.092 331.062,334.644 319.58,334.644C309.739,334.644 301.162,341.585 299.11,351.21C298.804,352.64 298.649,354.098 298.65,355.56Z" style="fill:rgb(238,142,158);fill-rule:nonzero;"/>
    </g>
    <g transform="matrix(1,0,0,1,-11.09,-87.42)">
        <path d="M285.22,404L280.22,405.55C280.481,406.58 280.083,407.67 279.22,408.29C278.335,408.907 277.849,409.956 277.95,411.03C278.051,412.104 277.4,413.03 276.12,413.5C274.84,413.97 274.02,416.97 274.02,416.97L269.82,421.81C269.82,421.81 268.26,423.09 268.54,423.73C268.82,424.37 266.89,424.55 266.89,424.55L267.89,440.81L276.57,442.46L281.96,441.91L286.34,440.27L290.18,437.98L291.91,433.51L299.59,421.81L285.22,404Z" style="fill:rgb(63,61,86);fill-rule:nonzero;"/>
    </g>
    <g transform="matrix(1,0,0,1,-11.09,-87.42)">
        <path d="M268.14,425.8C268.14,425.8 257,409.73 248.68,418.4C240.36,427.07 252.06,441.15 254.8,440.69C257.54,440.23 270.61,439.5 270.61,439.5L268.14,425.8Z" style="fill:rgb(238,142,158);fill-rule:nonzero;"/>
    </g>
    <g transform="matrix(0.890689,0.454612,-0.454612,0.890689,211.11,-158.78)">
        <path d="M288.69,405.35C288.69,404.5 288,403.81 287.15,403.81L231.9,403.81C231.05,403.81 230.36,404.5 230.36,405.35L230.36,447.56C230.36,448.41 231.05,449.1 231.9,449.1L287.15,449.1C288,449.1 288.69,448.41 288.69,447.56L288.69,405.35Z" style="fill:rgb(63,61,86);"/>
    </g>
    <g transform="matrix(0.890689,0.454612,-0.454612,0.890689,211.1,-158.83)">
        <rect x="235.09" y="407.92" width="49.03" height="36.95" style="fill:rgb(108,99,255);"/>
    </g>
    <circle cx="224.97" cy="326.96" r="0.8" style="fill:rgb(230,232,236);"/>
    <circle cx="272.24" cy="351.18" r="1.33" style="fill:rgb(230,232,236);"/>
    <g transform="matrix(1,0,0,1,-11.09,-87.42)">
        <path d="M260.93,429.18C260.83,441.24 285.77,443.8 285.77,443.8L292.14,444.8L295,445.25L296.19,433.47C296.19,433.47 294.88,433.27 293.25,432.89C290.83,432.33 287.7,431.36 287.05,429.99C286,427.72 261,417.12 260.93,429.18Z" style="fill:rgb(238,142,158);fill-rule:nonzero;"/>
    </g>
    <g transform="matrix(1,0,0,1,-11.09,-87.42)">
        <path d="M299.11,351.21C299.683,351.252 300.224,351.493 300.64,351.89C301.34,352.64 301.38,353.97 302.3,354.43C302.644,354.575 303.023,354.617 303.39,354.55C305.82,354.21 307.22,351.47 309.56,350.71C310.92,350.36 312.359,350.484 313.64,351.06C314.16,351.229 314.629,351.528 315,351.93C315.78,352.93 315.23,354.43 315.59,355.65C316.09,357.35 318.12,358.02 319.87,358.24C321.62,358.46 323.6,358.59 324.77,359.91C325.553,360.911 325.87,362.201 325.64,363.45C325.535,363.88 325.535,364.33 325.64,364.76C326.12,366.13 328.49,365.92 329.11,364.84C329.57,364.05 329.43,363.4 330.5,363.18C331.264,363.119 332.032,363.253 332.73,363.57C334.592,364.209 336.552,364.51 338.52,364.46C339.823,361.681 340.499,358.648 340.499,355.579C340.499,344.102 331.055,334.659 319.579,334.659C309.745,334.659 301.174,341.593 299.12,351.21L299.11,351.21Z" style="fill-opacity:0.1;fill-rule:nonzero;"/>
    </g>
    <g transform="matrix(1,0,0,1,-11.09,-87.42)">
        <path d="M325.63,364.21C325.525,363.78 325.525,363.33 325.63,362.9C325.861,361.654 325.544,360.366 324.76,359.37C323.59,358.04 321.62,357.92 319.86,357.69C318.1,357.46 316.08,356.8 315.58,355.1C315.22,353.88 315.77,352.39 314.99,351.39C314.625,350.981 314.154,350.68 313.63,350.52C312.35,349.941 310.911,349.814 309.55,350.16C307.21,350.92 305.81,353.66 303.38,354C303.013,354.072 302.633,354.03 302.29,353.88C301.37,353.42 301.29,352.09 300.63,351.34C299.52,350.17 297.41,350.93 296.06,350.06C295.242,349.377 294.712,348.408 294.58,347.35C293.975,345.389 293.838,343.313 294.18,341.29C294.97,337.9 298.01,335.57 299.94,332.66C301.75,329.96 302.77,326.54 305.48,324.75C308.19,322.96 311.68,323.36 314.75,324.27C316.161,324.774 317.613,325.155 319.09,325.41C321.56,325.71 324.04,325.04 326.52,324.96C330.034,324.846 333.489,325.902 336.34,327.96C336.983,328.379 337.529,328.932 337.94,329.58C338.352,330.499 338.596,331.485 338.66,332.49C338.952,334.378 339.608,336.192 340.59,337.83C341.35,339.12 342.32,340.28 343.01,341.61C343.781,342.913 344.018,344.466 343.67,345.94C343.43,346.69 342.97,347.37 342.79,348.14C342.39,349.92 343.56,351.63 344.36,353.27C345.138,354.771 345.508,356.451 345.43,358.14C345.344,359.841 344.549,361.43 343.24,362.52C341.882,363.462 340.263,363.955 338.61,363.93C336.606,363.991 334.607,363.69 332.71,363.04C332.01,362.728 331.244,362.594 330.48,362.65C329.41,362.87 329.55,363.52 329.09,364.31C328.48,365.37 326.12,365.58 325.63,364.21Z" style="fill:rgb(63,61,86);fill-rule:nonzero;"/>
    </g>
    <g transform="matrix(1,0,0,1,-11.09,-87.42)">
        <path d="M314.36,482.16L326.15,472.94L344.69,454.67L338.57,454.39C337.852,455.039 337.393,455.928 337.28,456.89C337.19,459.12 332.28,457.04 329.71,458.32C327.14,459.6 314.64,475.62 312.45,475.51C310.26,475.4 308.52,474.4 307.6,475.95L307.54,476.05C307.175,476.47 306.684,476.762 306.14,476.88L314.36,482.16Z" style="fill-opacity:0.1;fill-rule:nonzero;"/>
    </g>
    <g transform="matrix(1,0,0,1,-11.09,-87.42)">
        <path d="M290.61,481.52L296.53,500.43L297.46,503.43L300.28,502.66L306.5,500.95L334.18,493.35C337.667,493.199 341.079,492.291 344.18,490.69C349.412,487.758 355.402,486.452 361.38,486.94C365.04,487.28 369.11,485.7 372.49,479.46C372.49,479.46 380.16,456.81 360.8,450.32C341.44,443.83 340.51,453.77 340.51,453.77L340.24,453.93C339.49,454.41 337.39,455.93 337.31,457.75C337.22,459.98 332.31,457.91 329.74,459.18C327.17,460.45 314.67,476.48 312.48,476.37C310.29,476.26 308.55,475.26 307.63,476.82L307.57,476.92C306.89,477.85 304.86,478.07 303.51,478.1C303.09,478.122 302.67,478.122 302.25,478.1L302.07,478.15L300.67,478.57L290.61,481.52Z" style="fill:rgb(101,97,125);fill-rule:nonzero;"/>
    </g>
    <g transform="matrix(1,0,0,1,-11.09,-87.42)">
        <path d="M292.14,444.81L295,445.26L296.19,433.48C296.19,433.48 294.88,433.28 293.25,432.9C293.68,434.55 292.7,440.9 292.14,444.81Z" style="fill-opacity:0.1;fill-rule:nonzero;"/>
    </g>
    <g transform="matrix(1,0,0,1,-11.09,-87.42)">
        <path d="M366.84,389.75C366.84,389.75 375.33,387.28 373.23,411.4C371.772,426.119 365.512,439.957 355.42,450.77C345.328,461.583 337.33,458.71 329.2,457.43C321.07,456.15 315.14,455.88 315.14,455.88C312.578,454.587 309.776,453.841 306.91,453.69C302.35,453.51 292.76,450.69 292.57,449.76C292.38,448.83 294.95,435.42 293.85,434.42C293.85,434.42 306.64,434.94 307.92,435.86C309.2,436.78 311.03,436.13 312.4,435.86C313.77,435.59 317.97,431.95 326.28,435.15C326.28,435.15 329.11,435.42 330.21,434.69C331.106,434.272 332.128,434.208 333.07,434.51C333.781,434.274 334.454,433.937 335.07,433.51C335.34,433.15 337.54,433.51 337.54,433.51C337.668,433.567 337.807,433.597 337.948,433.597C338.394,433.597 338.788,433.299 338.91,432.87C339.199,432.125 339.634,431.445 340.19,430.87C340.746,430.295 342.65,416.99 347.31,411.78C348.065,411.12 348.441,410.124 348.31,409.13C347.93,407.65 355.88,386.82 366.84,389.75Z" style="fill-opacity:0.1;fill-rule:nonzero;"/>
    </g>
    <g transform="matrix(1,0,0,1,-11.09,-87.42)">
        <path d="M366.61,387.89C366.61,387.89 375.11,385.43 373.01,409.54C371.556,424.26 365.295,438.099 355.2,448.91C345.105,459.721 337.11,456.86 328.98,455.58C320.85,454.3 314.91,454 314.91,454C312.352,452.706 309.552,451.96 306.69,451.81C302.12,451.62 292.53,448.81 292.35,447.88C292.17,446.95 294.72,433.54 293.63,432.53C293.63,432.53 306.42,433.06 307.7,433.98C308.98,434.9 310.8,434.24 312.17,433.98C313.54,433.72 317.74,430.07 326.06,433.26C326.06,433.26 328.89,433.54 329.98,432.81C330.877,432.396 331.896,432.328 332.84,432.62C333.549,432.378 334.221,432.042 334.84,431.62C335.11,431.25 337.3,431.62 337.3,431.62C337.428,431.677 337.567,431.707 337.708,431.707C338.154,431.707 338.548,431.409 338.67,430.98C338.959,430.235 339.394,429.555 339.95,428.98C340.506,428.405 342.42,415.1 347.08,409.89C347.835,409.23 348.211,408.234 348.08,407.24C347.71,405.8 355.65,385 366.61,387.89Z" style="fill:rgb(63,61,86);fill-rule:nonzero;"/>
    </g>
    <g transform="matrix(1,0,0,1,-11.09,-87.42)">
        <path d="M300.64,478.52L312.7,493.12L312.78,493.04C312.87,492.76 314.06,489.66 313.78,489.47C313.5,489.28 311.41,484.72 307.21,482.8C305.074,481.759 303.28,480.127 302.04,478.1L300.64,478.52Z" style="fill-opacity:0.1;fill-rule:nonzero;"/>
    </g>
    <g transform="matrix(1,0,0,1,-11.09,-87.42)">
        <path d="M300.8,503.79L302.12,504.54C302.12,504.54 305.18,502.09 308.23,499.62C311.28,497.15 314.23,494.73 314.23,494.62C314.23,494.51 315.51,491.24 315.23,491.06C314.95,490.88 314.46,489.7 313.3,488.23C305.12,485.94 310.3,491.62 311.02,491.88C311.02,491.88 301.07,489.59 300.52,500.44C300.473,501.564 300.567,502.689 300.8,503.79Z" style="fill-opacity:0.1;fill-rule:nonzero;"/>
    </g>
    <g transform="matrix(1,0,0,1,-11.09,-87.42)">
        <path d="M310.89,508.38L312.63,509.38L330.26,509.83C332.237,511.032 334.327,512.037 336.5,512.83C336.788,512.916 337.082,512.979 337.38,513.02C339.016,513.154 340.66,513.184 342.3,513.11C343.65,513.11 344.69,513.02 344.69,513.02C344.69,513.02 343.86,490.79 343.23,488.45C342.93,487.33 341.45,487.57 339.99,488.13C338.896,488.578 337.839,489.113 336.83,489.73C335.821,490.347 329.35,490.46 328.16,491.1C326.97,491.74 323.59,490.73 321.49,491.1C319.39,491.47 315.64,488.63 315.64,488.63C305.41,485.25 311.17,491.55 311.9,491.83C311.9,491.83 301.9,489.54 301.39,500.39C300.88,511.24 310.89,508.38 310.89,508.38Z" style="fill:rgb(63,61,86);fill-rule:nonzero;"/>
    </g>
    <g transform="matrix(1,0,0,1,-11.09,-87.42)">
        <path d="M336.38,499.8C336.57,504.4 340.16,510.11 342.3,513.13C343.65,513.13 344.69,513.04 344.69,513.04C344.69,513.04 343.86,490.81 343.23,488.47C342.93,487.35 341.45,487.59 339.99,488.15C338.22,491.47 336.22,496.08 336.38,499.8Z" style="fill:rgb(86,83,135);fill-rule:nonzero;"/>
    </g>
    <g transform="matrix(1,0,0,1,-11.09,-87.42)">
        <path d="M336.38,499.8C336.57,504.4 340.16,510.11 342.3,513.13C343.65,513.13 344.69,513.04 344.69,513.04C344.69,513.04 343.86,490.81 343.23,488.47C342.93,487.35 341.45,487.59 339.99,488.15C338.22,491.47 336.22,496.08 336.38,499.8Z" style="fill-opacity:0.1;fill-rule:nonzero;"/>
    </g>
    <g transform="matrix(1,0,0,1,-11.09,-87.42)">
        <path d="M333.36,500.41C334.58,504.85 334.56,509.83 336.5,512.85C336.788,512.936 337.082,512.999 337.38,513.04C339.016,513.174 340.66,513.204 342.3,513.13C343.65,513.13 344.69,513.04 344.69,513.04C344.69,513.04 343.86,490.81 343.23,488.47C342.93,487.35 341.45,487.59 339.99,488.15C338.896,488.598 337.839,489.133 336.83,489.75C335.821,490.367 331.81,494.72 333.36,500.41Z" style="fill-opacity:0.05;fill-rule:nonzero;"/>
    </g>
    <g transform="matrix(1,0,0,1,-11.09,-87.42)">
        <path d="M272.54,455.34C272.54,455.34 281.3,458.18 288.72,468.28L272.54,455.34Z" style="fill-opacity:0.1;fill-rule:nonzero;"/>
    </g>
    <g opacity="0.1">
        <g transform="matrix(1,0,0,1,-11.09,-87.42)">
            <path d="M343.7,345.72C343.7,345.79 343.7,345.85 343.65,345.92C343.566,346.181 343.462,346.435 343.34,346.68C343.436,346.352 343.557,346.031 343.7,345.72Z" style="fill-rule:nonzero;"/>
        </g>
        <g transform="matrix(1,0,0,1,-11.09,-87.42)">
            <path d="M294.16,341.29C294.308,340.651 294.537,340.032 294.84,339.45C294.84,339.6 294.74,339.76 294.7,339.92C294.367,341.944 294.507,344.019 295.11,345.98C295.243,347.035 295.768,348.003 296.58,348.69C297.94,349.56 300.05,348.8 301.16,349.97C301.86,350.72 301.9,352.05 302.82,352.51C303.163,352.66 303.543,352.702 303.91,352.63C306.34,352.29 307.74,349.55 310.08,348.79C311.441,348.44 312.882,348.567 314.16,349.15C314.684,349.31 315.155,349.611 315.52,350.02C316.3,351.02 315.75,352.51 316.11,353.73C316.61,355.43 318.64,356.1 320.39,356.32C322.14,356.54 324.12,356.67 325.29,358C326.074,358.996 326.391,360.284 326.16,361.53C326.055,361.96 326.055,362.41 326.16,362.84C326.64,364.21 329.01,364 329.63,362.92C330.09,362.13 329.95,361.48 331.02,361.26C331.784,361.204 332.55,361.338 333.25,361.65C335.147,362.3 337.146,362.601 339.15,362.54C340.803,362.565 342.422,362.072 343.78,361.13C344.374,360.664 344.858,360.073 345.2,359.4C344.891,360.624 344.188,361.714 343.2,362.5C341.842,363.442 340.223,363.935 338.57,363.91C336.566,363.971 334.567,363.67 332.67,363.02C331.97,362.708 331.204,362.574 330.44,362.63C329.37,362.85 329.51,363.5 329.06,364.29C328.43,365.37 326.06,365.58 325.58,364.21C325.48,363.779 325.48,363.331 325.58,362.9C325.811,361.654 325.494,360.366 324.71,359.37C323.54,358.04 321.57,357.92 319.81,357.69C318.05,357.46 316.03,356.8 315.53,355.1C315.17,353.88 315.72,352.39 314.94,351.39C314.577,350.983 314.111,350.682 313.59,350.52C312.307,349.941 310.865,349.814 309.5,350.16C307.17,350.92 305.76,353.66 303.33,354C302.963,354.072 302.583,354.03 302.24,353.88C301.32,353.42 301.24,352.09 300.58,351.34C299.47,350.17 297.37,350.93 296.01,350.06C295.192,349.377 294.662,348.408 294.53,347.35C293.935,345.387 293.809,343.311 294.16,341.29Z" style="fill-rule:nonzero;"/>
        </g>
    </g>
    <g transform="matrix(1,0,0,1,-11.09,-87.42)">
        <path d="M345.12,414.41C343.44,416.67 341.53,418.76 340.05,421.14C338.443,423.486 337.661,426.301 337.83,429.14C339.36,427.57 340.07,425.39 341.03,423.42C342.67,420.08 345.11,417.25 347.18,414.19C347.57,413.6 350.09,410.19 348.82,410.05C347.76,409.9 345.69,413.64 345.12,414.41Z" style="fill-opacity:0.1;fill-rule:nonzero;"/>
    </g>
    <g transform="matrix(1,0,0,1,-11.09,-87.42)">
        <path d="M354.12,628.38C355.33,632.26 356.55,636.15 358.06,639.92C360.781,646.474 364.204,652.714 368.27,658.53C370.891,662.359 373.709,666.051 376.71,669.59C380.47,674.02 384.71,678.48 385.99,684.14C386.76,687.41 386.5,690.82 386.82,694.14C387.14,697.46 388.23,701.02 390.94,703.02C392.87,704.45 395.34,704.88 397.71,705.25C399.41,705.52 401.53,705.61 402.41,704.14C402.718,703.54 402.879,702.875 402.88,702.2L403.29,697.31C403.37,696.25 403.75,694.9 404.81,694.85C405.87,694.8 406.4,696.21 407.3,696.85C408.5,697.69 410.3,696.85 410.96,695.58C411.508,694.205 411.543,692.679 411.06,691.28C409.588,685.653 405.774,680.917 400.59,678.28C398.809,677.562 397.101,676.675 395.49,675.63C393.854,674.207 392.497,672.491 391.49,670.57C382.21,655.29 372.88,639.93 366.33,623.3C365.039,620.328 364.168,617.192 363.74,613.98C363.42,610.71 363.93,607.42 364.14,604.14C364.528,598.248 363.981,592.331 362.52,586.61C362.201,585.108 361.637,583.669 360.85,582.35C358.15,578.26 351.85,577.65 347.85,580.47C344.873,582.76 342.993,586.199 342.67,589.94C342.38,593.26 344.29,596.7 345.26,599.79C348.2,609.33 351.153,618.86 354.12,628.38Z" style="fill:rgb(161,97,106);fill-rule:nonzero;"/>
    </g>
    <g transform="matrix(1,0,0,1,-11.09,-87.42)">
        <path d="M354.12,628.38C355.33,632.26 356.55,636.15 358.06,639.92C360.781,646.474 364.204,652.714 368.27,658.53C370.891,662.359 373.709,666.051 376.71,669.59C380.47,674.02 384.71,678.48 385.99,684.14C386.76,687.41 386.5,690.82 386.82,694.14C387.14,697.46 388.23,701.02 390.94,703.02C392.87,704.45 395.34,704.88 397.71,705.25C399.41,705.52 401.53,705.61 402.41,704.14C402.718,703.54 402.879,702.875 402.88,702.2L403.29,697.31C403.37,696.25 403.75,694.9 404.81,694.85C405.87,694.8 406.4,696.21 407.3,696.85C408.5,697.69 410.3,696.85 410.96,695.58C411.508,694.205 411.543,692.679 411.06,691.28C409.588,685.653 405.774,680.917 400.59,678.28C398.809,677.562 397.101,676.675 395.49,675.63C393.854,674.207 392.497,672.491 391.49,670.57C382.21,655.29 372.88,639.93 366.33,623.3C365.039,620.328 364.168,617.192 363.74,613.98C363.42,610.71 363.93,607.42 364.14,604.14C364.528,598.248 363.981,592.331 362.52,586.61C362.201,585.108 361.637,583.669 360.85,582.35C358.15,578.26 351.85,577.65 347.85,580.47C344.873,582.76 342.993,586.199 342.67,589.94C342.38,593.26 344.29,596.7 345.26,599.79C348.2,609.33 351.153,618.86 354.12,628.38Z" style="fill-opacity:0.05;fill-rule:nonzero;"/>
    </g>
    <g transform="matrix(1,0,0,1,-11.09,-87.42)">
        <path d="M295.82,791.76C297.629,792.389 299.553,792.621 301.46,792.44C301.6,790.88 303.7,790.53 305.26,790.61C306.014,790.585 306.763,790.757 307.43,791.11C307.82,791.36 308.12,791.72 308.5,791.98C309.178,792.351 309.937,792.547 310.71,792.55L318.83,793.23C322.45,793.54 326.22,793.82 329.61,792.53C330.285,792.316 330.886,791.913 331.34,791.37C332.26,790.05 331.34,788.16 330.07,787.2C328.8,786.24 327.16,785.81 325.88,784.83C323.06,782.68 322.67,778.66 321.18,775.44C320.121,773.41 318.814,771.519 317.29,769.81C316.186,768.343 314.898,767.022 313.46,765.88C310.2,763.53 306.46,763.58 302.63,763.24C299.93,763 297.39,762.84 295.45,765.24C293.05,768.24 294.01,774.24 294.16,777.74C294.347,782.449 294.902,787.137 295.82,791.76Z" style="fill:rgb(81,78,127);fill-rule:nonzero;"/>
    </g>
    <g transform="matrix(1,0,0,1,-11.09,-87.42)">
        <path d="M295.82,791.76C297.629,792.389 299.553,792.621 301.46,792.44C301.6,790.88 303.7,790.53 305.26,790.61C306.014,790.585 306.763,790.757 307.43,791.11C307.82,791.36 308.12,791.72 308.5,791.98C309.178,792.351 309.937,792.547 310.71,792.55L318.83,793.23C322.45,793.54 326.22,793.82 329.61,792.53C330.285,792.316 330.886,791.913 331.34,791.37C332.26,790.05 331.34,788.16 330.07,787.2C328.8,786.24 327.16,785.81 325.88,784.83C323.06,782.68 322.67,778.66 321.18,775.44C320.121,773.41 318.814,771.519 317.29,769.81C316.186,768.343 314.898,767.022 313.46,765.88C310.2,763.53 306.46,763.58 302.63,763.24C299.93,763 297.39,762.84 295.45,765.24C293.05,768.24 294.01,774.24 294.16,777.74C294.347,782.449 294.902,787.137 295.82,791.76Z" style="fill-opacity:0.05;fill-rule:nonzero;"/>
    </g>
    <g transform="matrix(1,0,0,1,-11.09,-87.42)">
        <path d="M299.1,633.81C296.62,634.61 295.54,637.7 296,640.27C296.46,642.84 298,645.06 299.27,647.34C302.89,653.81 304.45,661.21 307.49,667.96C309.76,672.96 312.83,677.66 315.07,682.72C317.31,687.78 318.7,693.49 317.34,698.86C316.68,701.47 315.4,703.86 314.55,706.43C313.709,709.215 313.159,712.081 312.91,714.98C311.809,724.828 311.611,734.756 312.32,744.64C312.326,745.845 312.578,747.036 313.06,748.14C313.57,749.14 314.45,750.14 314.06,751.14C313.89,751.55 313.52,751.85 313.34,752.25C312.82,753.37 313.86,754.56 314.81,755.36C314.467,755.967 313.894,756.411 313.22,756.59C314.615,757.478 315.268,759.188 314.82,760.78C313.98,760.91 313.93,762.2 314.46,762.88C314.99,763.56 315.83,763.98 316.21,764.75C316.672,766.045 316.036,767.494 314.77,768.03C313.521,768.511 312.158,768.615 310.85,768.33C308.633,768.021 306.443,767.54 304.3,766.89C301.995,766.437 300.357,764.336 300.48,761.99C299.985,757.92 299.834,753.815 300.03,749.72C300.38,729.88 300.03,710.02 299.17,690.19C298.82,682.19 296.42,674.44 293.33,667.08C291.622,663.319 289.723,659.647 287.64,656.08C283.18,647.92 279.24,638.88 280.26,629.63C280.37,628.63 280.73,627.44 281.72,627.28C282.107,627.238 282.498,627.304 282.85,627.47C284.904,628.429 286.892,629.525 288.8,630.75C291.935,632.588 295.47,633.638 299.1,633.81Z" style="fill:rgb(70,67,83);fill-rule:nonzero;"/>
    </g>
    <g transform="matrix(1,0,0,1,-11.09,-87.42)">
        <path d="M299.1,633.81C296.62,634.61 295.54,637.7 296,640.27C296.46,642.84 298,645.06 299.27,647.34C302.89,653.81 304.45,661.21 307.49,667.96C309.76,672.96 312.83,677.66 315.07,682.72C317.31,687.78 318.7,693.49 317.34,698.86C316.68,701.47 315.4,703.86 314.55,706.43C313.709,709.215 313.159,712.081 312.91,714.98C311.809,724.828 311.611,734.756 312.32,744.64C312.326,745.845 312.578,747.036 313.06,748.14C313.57,749.14 314.45,750.14 314.06,751.14C313.89,751.55 313.52,751.85 313.34,752.25C312.82,753.37 313.86,754.56 314.81,755.36C314.467,755.967 313.894,756.411 313.22,756.59C314.615,757.478 315.268,759.188 314.82,760.78C313.98,760.91 313.93,762.2 314.46,762.88C314.99,763.56 315.83,763.98 316.21,764.75C316.672,766.045 316.036,767.494 314.77,768.03C313.521,768.511 312.158,768.615 310.85,768.33C308.633,768.021 306.443,767.54 304.3,766.89C301.995,766.437 300.357,764.336 300.48,761.99C299.985,757.92 299.834,753.815 300.03,749.72C300.38,729.88 300.03,710.02 299.17,690.19C298.82,682.19 296.42,674.44 293.33,667.08C291.622,663.319 289.723,659.647 287.64,656.08C283.18,647.92 279.24,638.88 280.26,629.63C280.37,628.63 280.73,627.44 281.72,627.28C282.107,627.238 282.498,627.304 282.85,627.47C284.904,628.429 286.892,629.525 288.8,630.75C291.935,632.588 295.47,633.638 299.1,633.81Z" style="fill-opacity:0.05;fill-rule:nonzero;"/>
    </g>
    <g transform="matrix(1,0,0,1,-11.09,-87.42)">
        <path d="M265.57,609.69C264.277,608.86 262.785,608.39 261.25,608.33C259.47,608.42 257.95,609.59 256.56,610.71C254.913,611.974 253.35,613.344 251.88,614.81C245.69,621.408 243.557,630.876 246.32,639.49C247.79,643.9 250.48,647.79 253.14,651.6L258.54,659.36C266.78,671.19 275.02,683.02 283.65,694.57C283.654,695.151 284.035,695.667 284.59,695.84C284.9,695.92 285.29,695.91 285.48,696.17C285.568,696.332 285.606,696.516 285.59,696.7C285.571,697.554 285.408,698.399 285.11,699.2C284.97,699.464 284.934,699.771 285.01,700.06C285.29,700.71 286.47,700.34 286.85,700.95C287.1,701.35 286.79,701.87 286.46,702.21C286.13,702.55 285.72,702.93 285.78,703.4C285.84,703.87 286.66,704.4 286.63,704.98C286.63,705.32 286.33,705.58 286.12,705.85C285.516,706.734 285.63,707.935 286.39,708.69C286.96,714.33 283.89,719.69 283.28,725.31C282.28,734.19 286.33,742.86 286.82,751.77C286.791,752.773 286.982,753.769 287.38,754.69C288.21,756.23 290.38,757.16 290.27,758.91C290.113,759.629 289.909,760.337 289.66,761.03C289.49,762.03 289.97,763.03 289.99,764.03C290.01,765.03 289.12,766.26 288.18,765.86C288.887,768.22 289.517,770.6 290.07,773L308.97,774.56C309.174,772.861 309.116,771.141 308.8,769.46C308.41,767.63 307.59,765.93 307.16,764.12C306.594,762.317 306.866,760.352 307.9,758.77C306.887,758.782 306.004,758.056 305.82,757.06C305.662,756.085 305.679,755.089 305.87,754.12C306.37,749.19 304.3,744.33 304.36,739.38C304.42,735.48 305.79,731.73 306.48,727.9C307.96,719.7 306.42,710.81 310.07,703.32C312.28,698.81 315.34,693.81 312.86,689.44C311.64,687.28 309.48,685.8 308.07,683.76C306.921,681.832 306.058,679.747 305.51,677.57C302.6,668.57 297.89,660.21 293.76,651.65C292.614,649.504 291.763,647.214 291.23,644.84C290.938,642.757 290.831,640.652 290.91,638.55C290.91,634.776 290.68,631.006 290.22,627.26C290.127,625.619 289.658,624.021 288.85,622.59C288.034,621.507 287.015,620.594 285.85,619.9C279.65,615.65 272.27,613.22 265.57,609.69Z" style="fill:rgb(70,67,83);fill-rule:nonzero;"/>
    </g>
    <g transform="matrix(1,0,0,1,-11.09,-87.42)">
        <path d="M288.22,798.69C290.035,799.311 291.961,799.539 293.87,799.36C294.01,797.8 296.1,797.45 297.66,797.53C298.414,797.505 299.163,797.677 299.83,798.03C300.22,798.28 300.52,798.65 300.91,798.9C301.586,799.276 302.347,799.472 303.12,799.47L311.23,800.15C314.86,800.46 318.62,800.75 322.02,799.45C322.694,799.239 323.292,798.836 323.74,798.29C324.66,796.97 323.74,795.09 322.47,794.13C321.2,793.17 319.56,792.73 318.29,791.75C315.46,789.6 315.08,785.59 313.58,782.37C312.531,780.333 311.227,778.438 309.7,776.73C308.592,775.265 307.301,773.948 305.86,772.81C302.61,770.45 298.86,770.5 295.04,770.16C292.33,769.92 289.79,769.77 287.86,772.16C285.46,775.16 286.42,781.16 286.56,784.67C286.748,789.379 287.303,794.067 288.22,798.69Z" style="fill:rgb(81,78,127);fill-rule:nonzero;"/>
    </g>
    <circle cx="360.9" cy="470.82" r="18.72" style="fill:rgb(161,97,106);"/>
    <g transform="matrix(1,0,0,1,-11.09,-87.42)">
        <path d="M354.33,563.8C351.65,566.11 347.8,566.28 344.28,566.64C336.753,567.413 329.426,569.534 322.65,572.9C321.712,573.304 320.863,573.889 320.15,574.62C319.542,575.413 319.109,576.327 318.88,577.3C318.236,579.406 317.995,581.615 318.17,583.81C318.415,585.939 319.028,588.01 319.98,589.93C322.578,595.308 326.588,599.881 331.58,603.16C332.46,603.815 333.458,604.294 334.52,604.57C336.98,605.08 339.36,603.66 341.79,603.02C344,602.444 346.33,602.516 348.5,603.23C350.5,603.91 352.69,605.15 354.67,604.32C355.937,603.611 356.922,602.488 357.46,601.14C359.372,597.526 361.078,593.807 362.57,590C363.106,588.514 363.723,587.058 364.42,585.64C366.59,581.51 370.34,578.32 372.21,574.03C372.594,573.368 372.66,572.566 372.39,571.85C372.043,571.372 371.563,571.007 371.01,570.8C368.245,569.217 365.725,567.239 363.53,564.93C362.3,563.75 360.04,560.56 358.27,560.28C356.28,559.94 355.68,562.64 354.33,563.8Z" style="fill:rgb(161,97,106);fill-rule:nonzero;"/>
    </g>
    <g transform="matrix(1,0,0,1,-11.09,-87.42)">
        <path d="M354.77,601.84C352.6,602.84 350.04,602.41 347.69,601.92C341.63,600.65 335.5,599.37 329.89,596.75C328.138,596.079 326.618,594.911 325.52,593.39C324.838,592.089 324.423,590.664 324.3,589.2L323.3,582.2C322.94,579.77 323.56,577.52 323.62,575.06C323.697,574.509 323.549,573.95 323.21,573.51C322.868,573.223 322.425,573.082 321.98,573.12C319.17,573.17 317.47,576.12 315.5,578.12C314.361,579.274 313.001,580.186 311.5,580.8C309.7,581.54 307.5,582.06 306.75,583.86C306.45,584.61 306.49,585.46 306.17,586.21C304.91,589.21 299.54,588.21 298.17,591.21C297.78,592.05 297.81,593.1 297.17,593.76C296.53,594.42 295.33,594.41 294.34,594.57C290.43,595.21 288.54,599.72 285.2,601.85C282.39,603.65 278.77,603.61 275.74,605.01C274.06,605.79 272.57,607.01 270.79,607.52C269.01,608.03 267,607.76 265.09,607.81C264.678,607.771 264.269,607.905 263.96,608.18C263.72,608.546 263.651,608.999 263.77,609.42C265.652,621.436 273.761,631.598 285.06,636.1C285.705,636.305 286.318,636.602 286.88,636.98C288.58,638.25 288.88,640.98 290.81,641.88C292.228,642.379 293.813,642.038 294.9,641C295.965,639.975 296.967,638.886 297.9,637.74C299.662,635.9 301.976,634.681 304.49,634.27C306.81,633.9 309.4,634.17 311.28,632.74C312.049,632.034 312.764,631.272 313.42,630.46C314.813,629.161 316.466,628.172 318.27,627.56C323.199,625.613 328.409,624.468 333.7,624.17C338.63,623.9 343.7,624.35 348.36,622.75C349.57,622.375 350.685,621.744 351.63,620.9C352.632,619.816 353.377,618.521 353.81,617.11C355.491,612.198 355.823,606.924 354.77,601.84Z" style="fill:rgb(108,99,255);fill-rule:nonzero;"/>
    </g>
    <g transform="matrix(1,0,0,1,-11.09,-87.42)">
        <path d="M330.64,574.25C332.02,574.12 333.41,574.25 334.8,574.25C336.43,574.25 338.04,573.85 339.67,573.84C344.953,573.926 349.598,577.461 351.09,582.53C351.227,582.925 351.252,583.352 351.16,583.76C351.049,584.175 350.647,584.449 350.22,584.4C349.679,582.921 348.971,581.509 348.11,580.19C346.56,578.075 344.351,576.533 341.83,575.81C339.317,575.098 336.668,575.002 334.11,575.53C333.04,575.73 332,576.01 330.96,576.3L325.96,577.68C325.04,577.93 324.11,578.18 323.22,578.51C322.53,578.77 321.35,579.72 320.67,579.76C319.75,579.76 320.49,578.96 320.9,578.42C321.716,577.307 322.86,576.475 324.17,576.04C326.248,575.189 328.42,574.588 330.64,574.25Z" style="fill:rgb(108,99,255);fill-rule:nonzero;"/>
    </g>
    <g transform="matrix(1,0,0,1,-11.09,-87.42)">
        <path d="M343.26,630.48C344.47,634.36 345.68,638.25 347.2,642.02C349.917,648.576 353.34,654.816 357.41,660.63C360.031,664.459 362.849,668.151 365.85,671.69C369.6,676.12 373.79,680.58 375.13,686.23C375.9,689.51 375.64,692.92 375.96,696.23C376.28,699.54 377.37,703.11 380.07,705.11C382.01,706.53 384.48,706.96 386.85,707.34C388.54,707.61 390.66,707.7 391.55,706.23C391.852,705.627 392.013,704.964 392.02,704.29L392.42,699.4C392.51,698.34 392.89,696.99 393.94,696.94C394.99,696.89 395.54,698.3 396.44,698.94C397.64,699.78 399.44,698.94 400.1,697.67C400.643,696.295 400.679,694.769 400.2,693.37C398.721,687.746 394.909,683.014 389.73,680.37C387.947,679.65 386.236,678.762 384.62,677.72C382.98,676.296 381.623,674.576 380.62,672.65C371.33,657.38 362,642.02 355.46,625.38C354.17,622.411 353.295,619.278 352.86,616.07C352.55,612.8 353.05,609.51 353.27,606.23C353.658,600.338 353.111,594.421 351.65,588.7C351.331,587.196 350.763,585.756 349.97,584.44C347.28,580.34 340.97,579.74 336.97,582.56C333.991,584.849 332.106,588.287 331.78,592.03C331.49,595.35 333.41,598.79 334.37,601.88C337.323,611.427 340.287,620.96 343.26,630.48Z" style="fill:rgb(161,97,106);fill-rule:nonzero;"/>
    </g>
    <g transform="matrix(1,0,0,1,-11.09,-87.42)">
        <path d="M399.22,545C399.37,543.44 397.97,542 396.38,541C394.705,540.142 393.098,539.159 391.57,538.06C390.15,536.83 389.37,535.23 387.95,534C386.336,532.771 384.503,531.858 382.55,531.31C378.395,529.853 374.033,529.073 369.63,529C365.18,529 360.63,530 357.28,532.27C356.453,532.79 355.739,533.47 355.18,534.27C354.652,535.23 354.312,536.282 354.18,537.37C353.382,540.725 352.301,544.007 350.95,547.18C349.56,550.71 348.08,554.37 344.81,557.1C341.31,560.01 335.96,561.69 333.65,565.21C333.132,565.844 332.943,566.686 333.14,567.48C333.47,568.37 334.53,568.98 335.51,569.54C341.19,572.8 346.09,577.03 348.61,582.08C351.13,587.13 351.06,593.08 347.47,597.73C346.15,599.45 344.33,601.49 345.62,603.22C347.62,605.85 354.31,604.34 355.87,607.12C356.36,608.01 356.07,609.02 356.07,609.99C356.07,612.91 358.88,615.5 362.29,616.85C365.7,618.2 369.65,618.52 373.49,618.69C374.509,616.399 374.609,613.802 373.77,611.44C373.514,610.93 373.413,610.356 373.48,609.79C373.766,609.161 374.211,608.616 374.77,608.21C378.87,604.33 378,598.63 375.54,594.02C373.08,589.41 369.24,585.2 367.81,580.35C367.1,577.94 367.1,575.23 369.01,573.23C370.106,572.268 371.288,571.408 372.54,570.66C374.777,569.142 376.5,566.979 377.48,564.46C378.63,561.27 378.48,557.46 381.82,555.31C385.03,553.31 389.54,553.89 393.09,552.52C395.82,551.44 399,547.29 399.22,545Z" style="fill:rgb(70,67,83);fill-rule:nonzero;"/>
    </g>
    <g>
        <g transform="matrix(1.09639,0,0,1.09639,9.21428,64.19)">
            <text x="484.367px" y="556.333px" style="font-family:'ArialMT', 'Arial', sans-serif;font-size:144px;fill:rgb(227,227,227);"></text>
        </g>
        <g transform="matrix(1.08671,0,0,1.08671,15.3643,66.9013)">
            <text x="484.367px" y="556.333px" style="font-family:'ArialMT', 'Arial', sans-serif;font-size:144px;fill:rgb(108,99,255);"></text>
        </g>
    </g>
    <defs>
        <linearGradient id="_Linear1" x1="0" y1="0" x2="1" y2="0" gradientUnits="userSpaceOnUse" gradientTransform="matrix(1.16893e-14,-190.9,190.9,1.16893e-14,316.9,512.48)"><stop offset="0" style="stop-color:rgb(128,128,128);stop-opacity:0.25"/><stop offset="0.54" style="stop-color:rgb(128,128,128);stop-opacity:0.12"/><stop offset="1" style="stop-color:rgb(128,128,128);stop-opacity:0.1"/></linearGradient>
    </defs>
</svg>
